# xmcd CD database file
#
# Track frame offsets:
#	150
#	50722
#	67736
#	83716
#	111080
#	152641
#	179614
#
# Disc length: 3123 seconds
#
# Revision: 0
# Processed by: cddbd v1.4PL0 Copyright (c) Steve Scherf et al.
# Submitted via: CDex 1.51
#
DISCID=540c3107
DTITLE=World Saxophone Quartet - The New Chapter
DYEAR=2001
DGENRE=Jazz
TTITLE0=Suki Suki Now
TTITLE1=Netdown
TTITLE2=Bit's n' Pieces
TTITLE3=Goin' Home
TTITLE4=Over a Cloud (Sobre una Nube)
TTITLE5=Stock
TTITLE6=The New Chapter
EXTD=YEAR: 2001
EXTT0=
EXTT1=
EXTT2=
EXTT3=
EXTT4=
EXTT5=
EXTT6=
PLAYORDER=
